<svg enable-background="new 0 0 651.7 51" viewBox="0 0 651.7 51" xmlns="http://www.w3.org/2000/svg"><g fill="#15201e"><path d="m442.8 35.4c3.9-.7 6.3-1.1 8.4-1.8 2-.6 3.6-1.4 4.9-2.4 1.3-1.1 2.6-2.5 3.6-4.5s1.7-4.6 1.7-8.2c0-10.5-5.1-17.7-26-17.7-17.7 0-35.3 0-53 0v49.1h13.5c0-4.7 0-9.3 0-14h28.3c4.1 0 5.6.8 11.8 5.4 3.8 2.8 7.6 5.7 11.5 8.6h15.1c-6.6-5.2-13.2-10-19.8-14.5zm-20.3-6.4c-8.9 0-17.7 0-26.6 0 0-6.8 0-13.6 0-20.4h37c14.5 0 15 5.8 15 10.3.1 5.9-2.4 10.1-25.4 10.1z"/><path d="m121.7 18.2c0 7.1 0 11.6.8 15 .7 3.3 2.1 5.2 4.5 6.5 2.3 1.3 5.6 1.9 9.4 2.3 3.7.4 8.5.6 12.8.6s9.1-.2 12.8-.6c3.9-.4 7.1-1.1 9.4-2.3 2.3-1.3 3.8-3.2 4.5-6.5.8-3.4.8-7.9.8-15 0-5.8 0-11.6 0-17.4h13.5v17.4c0 25.8 0 32.5-41 32.5s-41-6.7-41-32.5c0-5.8 0-11.6 0-17.4h13.5z"/><path d="m285.1 8.9c-11.4 0-22.8 0-34.3 0v41c-4.5 0-9 0-13.5 0 0-13.7 0-27.3 0-41-11.4 0-22.8 0-34.3 0 0-2.7 0-5.4 0-8.1h82c.1 2.7.1 5.4.1 8.1z"/><path d="m330.1.8c-3.6 0-7.2 0-10.8 0-13.4 16.4-26.7 32.7-40.1 49.1h13.5c3.6-4.5 7.3-8.9 10.9-13.4h42.2c3.6 4.5 7.3 8.9 10.9 13.4h13.5c-13.4-16.4-26.7-32.7-40.1-49.1zm-20.8 28.8c5.2-6.3 10.3-12.6 15.5-18.9 5.2 6.3 10.3 12.6 15.5 18.9-10.4 0-20.7 0-31 0z"/><path d="m479.6.8v49.1h75.6c0-2.7 0-5.4 0-8.1-20.7 0-41.4 0-62.1 0 0-4.5 0-8.9 0-13.4h48.5c0-2.1 0-4.2 0-6.2-16.2 0-32.3 0-48.5 0 0-4.5 0-8.9 0-13.4h62.1c0-2.7 0-5.4 0-8.1-25.2.1-50.4.1-75.6.1z"/><path d="m613.7 21.5c-7.6-.5-12.8-.9-17-1.3-4.1-.4-6.6-.9-8.4-1.6-1.7-.6-2.6-1.4-3-2.2s-.5-1.7-.4-2.4c0-.8.1-1.8.8-2.6.6-.8 1.7-1.6 3.6-2.1s4.5-.9 8.1-1.1c3.8-.2 8.2-.2 14.1-.2 5.4 0 9.5 0 13.1.2s6.2.5 8.2 1.1 3.2 1.3 4 2.1 1.1 1.7 1.3 2.4h12.1c0-1.6-.5-3.7-1.7-5.6-1.3-2-3.3-3.8-6.3-5.1-3-1.4-6.9-2.2-12.1-2.7-5.3-.4-11.2-.4-18.8-.4s-13.5 0-18.8.5c-5.1.4-9 1.3-12 2.6s-4.9 3-6.2 5c-1.2 1.9-1.7 3.9-1.7 5.5 0 2.7.3 4.9 1.3 6.6 1 1.8 2.8 3.1 6 4.2 3.3 1.1 7.9 2 14 2.7 6.2.7 13.1 1.1 20.3 1.6 12.5.8 18.5 1.8 21.7 3.1 1.6.7 2.4 1.4 2.9 2.3.5.8.6 1.7.6 2.7 0 .9-.1 1.9-.8 2.7s-1.8 1.6-3.9 2.2-4.9.9-8.8 1.1c-4 .2-8.5.2-14.4.2-5.4 0-9.5 0-13.1-.2s-6.2-.5-8.2-1-3.2-1.2-4-2-1.1-1.6-1.3-2.3c-4.1 0-8.3 0-12.4 0 0 1.6.5 3.6 1.7 5.5 1.3 1.9 3.3 3.7 6.3 5s6.9 2.2 12.1 2.6c5.3.5 11.2.5 18.8.5 8.1 0 14.4 0 19.9-.5 5.4-.4 9.4-1.3 12.5-2.6s5.1-3.1 6.4-5 1.7-4 1.7-5.6c0-1.8 0-3.8-.9-5.8s-2.5-3.7-5.4-5.1-6.9-2.5-12.3-3.2c-5.7-.9-11.9-1.3-19.6-1.8"/><path d="m92 .8v49.1c-4.5 0-9 0-13.5 0 0-11.7 0-23.3 0-35-10.8 11.1-21.6 22.2-32.5 33.4-10.8-11.2-21.7-22.3-32.5-33.4v35c-4.5 0-9 0-13.5 0 0-16.4 0-32.7 0-49.1h13.5c10.8 11.1 21.7 22.3 32.5 33.4 10.9-11.1 21.7-22.3 32.6-33.4z"/></g></svg>